<?xml version="1.0" encoding="UTF-8" standalone="no"?>
<!-- Created with Inkscape (http://www.inkscape.org/) -->

<svg
   xmlns:dc="http://purl.org/dc/elements/1.1/"
   xmlns:cc="http://creativecommons.org/ns#"
   xmlns:rdf="http://www.w3.org/1999/02/22-rdf-syntax-ns#"
   xmlns:svg="http://www.w3.org/2000/svg"
   xmlns="http://www.w3.org/2000/svg"
   xmlns:xlink="http://www.w3.org/1999/xlink"
   xmlns:sodipodi="http://sodipodi.sourceforge.net/DTD/sodipodi-0.dtd"
   xmlns:inkscape="http://www.inkscape.org/namespaces/inkscape"
   version="1.1"
   id="svg3699"
   width="133.33333"
   height="133.33333"
   viewBox="0 0 133.33333 133.33333"
   sodipodi:docname="enso-rouge-100x100.svg"
   inkscape:version="0.92.2 (5c3e80d, 2017-08-06)">
  <metadata
     id="metadata3705">
    <rdf:RDF>
      <cc:Work
         rdf:about="">
        <dc:format>image/svg+xml</dc:format>
        <dc:type
           rdf:resource="http://purl.org/dc/dcmitype/StillImage" />
        <dc:title></dc:title>
      </cc:Work>
    </rdf:RDF>
  </metadata>
  <defs
     id="defs3703" />
  <sodipodi:namedview
     pagecolor="#ffffff"
     bordercolor="#666666"
     borderopacity="1"
     objecttolerance="10"
     gridtolerance="10"
     guidetolerance="10"
     inkscape:pageopacity="0"
     inkscape:pageshadow="2"
     inkscape:window-width="764"
     inkscape:window-height="730"
     id="namedview3701"
     showgrid="false"
     inkscape:zoom="4.3425002"
     inkscape:cx="30.761778"
     inkscape:cy="62.54384"
     inkscape:window-x="375"
     inkscape:window-y="0"
     inkscape:window-maximized="0"
     inkscape:current-layer="svg3699" />
  <image
     sodipodi:absref="C:\Users\Gabriel\Desktop\Portfolio\Portfolio Main\images\enso-100x100.png"
     xlink:href="enso-100x100.png"
     y="0"
     x="0"
     id="image3707"
     preserveAspectRatio="none"
     height="133.33333"
     width="133.33333" />
  <path
     style="fill:#aa0000;stroke-width:1.33333325"
     d="m 85.999998,131.79167 c 2.2,-0.85669 4.6,-2.2447 5.333333,-3.08447 0.733333,-0.83977 3.883333,-3.15094 7,-5.13594 C 101.45,121.58625 104,119.37067 104,118.64775 c 0,-1.81234 -1.53743,-1.57975 -4.529765,0.68527 -1.391369,1.05319 -3.134075,1.5414 -3.872677,1.08492 -0.76193,-0.4709 -0.931326,-0.164 -0.39155,0.70938 0.523254,0.84664 0.465958,1.5909 -0.12732,1.65392 -0.59328,0.063 -2.87869,0.28486 -5.07869,0.493 -2.2,0.20814 -5.2,0.85037 -6.666667,1.42719 -1.58751,0.62434 -1.047932,-0.2071 1.333334,-2.05456 6.235919,-4.838 6.552705,-5.20812 3.858733,-4.50842 -1.38897,0.36075 -3.656599,-0.17415 -5.039176,-1.18866 -2.393912,-1.75662 -2.306765,-1.99197 1.827632,-4.93592 6.352776,-4.52358 13.521265,-11.99595 12.732481,-13.272231 -0.376004,-0.608385 0.359751,-1.92414 1.635009,-2.923899 2.016726,-1.58104 2.145026,-1.549108 0.985316,0.24522 -0.733329,1.13463 0.0211,0.53463 1.67654,-1.333333 C 114.30146,81.236102 113.36078,49.858264 100.54929,34.890922 89.162463,21.587973 70.691272,18.208876 53.333332,26.253289 43.021695,31.032143 35.507198,38.207819 31.257929,47.333332 c -1.707372,3.666667 -3.138878,5.89672 -3.181122,4.955675 -0.276488,-6.159128 12.823819,-22.702421 19.70776,-24.8873 1.689152,-0.536116 2.460722,-1.615028 2.004741,-2.803297 -0.407704,-1.062459 -0.04168,-1.931744 0.813395,-1.931744 0.85507,0 1.183854,0.6 0.730629,1.333333 -1.145948,1.854184 0.724273,1.58701 4.666667,-0.666666 3.032824,-1.733719 3.092925,-1.928702 0.666666,-2.162799 -1.466666,-0.141511 -3.566666,-0.207127 -4.666666,-0.145812 -1.471502,0.08203 -1.321056,-0.387331 0.569332,-1.776177 4.238798,-3.114196 1.39849,-3.631553 -4.106792,-0.748044 -5.729565,3.000982 -14.377221,9.926376 -10.898707,8.728126 2.997534,-1.032564 2.432259,2.457495 -1.038104,6.409361 -8.435515,9.605922 -15.124461,24.563279 -12.263947,27.423792 0.755532,0.755532 1.139857,3.825712 0.854054,6.822622 -0.285801,2.996911 -0.203782,5.449353 0.182263,5.449871 0.386045,5.18e-4 0.792968,1.573424 0.904272,3.495348 0.111307,1.921922 1.461304,5.197204 3,7.278401 3.183343,4.305701 3.549437,5.770086 1.130963,4.52387 -0.916667,-0.472349 0.292798,0.992242 2.687702,3.254644 5.581684,5.272876 3.199151,5.396 -2.782765,0.143808 -2.486652,-2.183309 -4.907529,-3.583309 -5.379728,-3.111112 -0.472199,0.472199 -0.858543,0.05854 -0.858543,-0.919234 0,-0.977778 -0.329654,-1.448123 -0.732566,-1.045211 -1.218415,1.218413 5.992354,10.861941 10.036376,13.422433 3.702985,2.34456 6.472041,3.20773 13.53526,4.21917 5.76732,0.82588 11.65336,4.53243 13.805027,8.6933 2.679333,5.18125 2.59583,5.82442 -1.367733,10.53485 -2.458204,2.92141 -5.010156,4.27206 -9.282155,4.91269 -8.463524,1.26918 -16.142964,-2.91401 -29.306306,-15.96392 C 8.4213019,100.61242 1.7700893,89.278434 3.2252489,83.016105 3.7744107,80.652769 3.652882,79.974377 2.8860417,81.122598 0.52747332,84.654179 0.14897965,75.479829 2.1350457,62.91912 4.2466646,49.564364 8.6658445,35.999999 10.905117,35.999999 c 0.759102,0 1.009189,0.966804 0.555747,2.148455 -0.578194,1.506749 -0.248288,1.927364 1.104538,1.408236 1.249351,-0.479422 2.392007,0.525248 3.243191,2.851545 0.724731,1.980699 1.361429,2.618389 1.419477,1.421691 0.05789,-1.193542 1.018998,-2.928407 2.135786,-3.855259 1.722575,-1.429611 1.892569,-1.302712 1.120894,0.83674 -1.15475,3.201519 -0.01053,2.144141 2.134335,-1.972311 1.356605,-2.603638 1.329678,-2.99604 -0.152728,-2.225768 -0.98983,0.514326 -0.187978,-0.551556 1.781893,-2.368624 1.969871,-1.817067 3.29972,-3.585623 2.955219,-3.930123 -1.30011,-1.300111 9.613373,-9.485682 16.725053,-12.544492 4.072645,-1.751689 9.586503,-4.36656 12.253017,-5.810823 12.388118,-6.7097745 37.923845,0.187903 53.712451,14.508739 l 3.894,3.531994 -2.99438,-4.346809 c -1.64692,-2.390745 -4.47735,-5.390745 -6.28985,-6.666666 -1.81251,-1.275922 -4.617334,-3.399536 -6.232949,-4.719142 -2.860101,-2.336083 -2.820068,-2.342274 1.51976,-0.235018 2.451479,1.190346 4.777549,1.843953 5.169049,1.452461 1.43714,-1.437148 8.28749,3.295993 12.77663,8.827821 13.55466,16.702989 18.40059,38.837783 13.39631,61.190465 -2.70876,12.099236 -8.13458,22.010679 -17.02113,31.092819 -6.78331,6.93261 -20.232796,14.60128 -28.111432,16.02867 l -4,0.72468 z m 12.666666,-5.8855 c 0,-0.36666 -1.2,-0.0244 -2.666666,0.76049 -1.466667,0.78494 -2.666667,1.72716 -2.666667,2.09383 0,0.36666 1.2,0.0244 2.666667,-0.76049 1.466666,-0.78494 2.666666,-1.72716 2.666666,-2.09383 z m -8.277806,-10.98344 c 2.85168,-2.19444 2.880272,-2.3513 0.428572,-2.3513 -1.444826,0 -2.519814,0.54642 -2.38886,1.21428 0.130946,0.66786 -0.595423,1.51713 -1.614167,1.88726 -1.125224,0.40883 -1.490554,0.0877 -0.930749,-0.81806 0.596824,-0.96568 0.153036,-1.19614 -1.259533,-0.65409 -1.745568,0.66984 -1.82595,1.06204 -0.402584,1.96431 2.392508,1.51661 2.649171,1.4649 6.167321,-1.2424 z M 109.33333,114 c 1.72233,-1.83334 2.8315,-3.33334 2.46484,-3.33334 -0.36667,0 -2.07585,1.5 -3.79817,3.33334 -1.72233,1.83333 -2.83151,3.33333 -2.46484,3.33333 0.36667,0 2.07584,-1.5 3.79817,-3.33333 z m -8,-90.632427 c 0,-0.347835 -1.799999,-1.563243 -3.999999,-2.700907 -5.014511,-2.593104 -5.317921,-1.466817 -0.333333,1.237367 4.190072,2.27315 4.333332,2.321536 4.333332,1.46354 z M 80.972221,13.86111 c -0.443056,-0.443054 -1.593056,-0.490424 -2.555556,-0.105266 -1.063644,0.425634 -0.747702,0.741577 0.805556,0.805556 1.405554,0.05789 2.193054,-0.257238 1.75,-0.700294 z m 22.621649,74.822297 c 1.21956,-2.557457 2.4541,-4.413216 2.74341,-4.123906 0.60995,0.609948 -3.4376,8.77383 -4.34995,8.77383 -0.33597,0 0.38697,-2.092465 1.60654,-4.649924 z m 3.73946,-19.797806 c 0,-7.667955 0.44081,-13.254105 0.97958,-12.413669 1.18405,1.847005 1.10132,18.963031 -0.11249,23.275069 -0.4769,1.694184 -0.86709,-3.193446 -0.86709,-10.8614 z M 22.910049,25.444963 c 0.52643,-1.740712 11.756617,-11.829665 11.756617,-10.561887 0,0.308937 -2.773733,3.236628 -6.163852,6.505979 -3.390119,3.269352 -5.906863,5.094511 -5.592765,4.055908 z m -1.576716,-3.869681 c 0,-1.611406 2.5296,-3.490128 3.454262,-2.565464 0.335599,0.335599 -0.30432,1.369147 -1.422041,2.296773 -1.267179,1.051666 -2.032221,1.152815 -2.032221,0.268691 z m 14.666666,-7.481458 c 0,-0.366667 1.2,-1.308888 2.666667,-2.093824 1.466666,-0.784936 2.666666,-1.127157 2.666666,-0.76049 0,0.366666 -1.2,1.308887 -2.666666,2.093823 -1.466667,0.784936 -2.666667,1.127157 -2.666667,0.760491 z M 67.025374,4.4093456 c 1.29729,-0.3380578 3.09729,-0.3158254 4,0.049405 0.90271,0.3652307 -0.158709,0.6418235 -2.358709,0.6146506 -2.2,-0.027173 -2.938581,-0.3259981 -1.641291,-0.6640556 z m 2.156135,-3.2814199 c 3.073537,-0.88379291 4.967677,-0.84540432 5.933333,0.1202511 1.002431,1.0024309 -0.321824,1.3832189 -4.514844,1.2982387 L 64.666665,2.4261646 Z"
     id="path3715"
     inkscape:connector-curvature="0" />
</svg>
